<svg width="348" height="349" viewBox="0 0 348 349" fill="none" xmlns="http://www.w3.org/2000/svg">
<rect y="0.5" width="348" height="348" rx="174" fill="black"/>
<circle cx="175.684" cy="174.654" r="27.5846" fill="white"/>
<path d="M148.1 91.9002C148.1 77.6813 159.626 66.1545 173.845 66.1545V66.1545C188.064 66.1545 199.591 77.6813 199.591 91.9002V110.29L173.845 136.036L148.1 110.29L148.1 91.9002Z" fill="white"/>
<path d="M199.591 257.408C199.591 271.627 188.064 283.154 173.845 283.154V283.154C159.626 283.154 148.1 271.627 148.1 257.408L148.1 239.018L173.845 213.272L199.591 239.018L199.591 257.408Z" fill="white"/>
<path d="M91.0914 200.399C76.8724 200.399 65.3457 188.873 65.3457 174.654V174.654C65.3457 160.435 76.8724 148.908 91.0914 148.908L109.481 148.908L135.227 174.654L109.481 200.399L91.0914 200.399Z" fill="white"/>
<path d="M256.599 148.908C270.818 148.908 282.345 160.435 282.345 174.654V174.654C282.345 188.873 270.818 200.4 256.599 200.4L238.209 200.4L212.464 174.654L238.209 148.908L256.599 148.908Z" fill="white"/>
<path d="M97.2511 134.111C87.2279 124.026 87.2783 107.725 97.3637 97.7018V97.7018C107.449 87.6786 123.75 87.7291 133.773 97.8144L146.737 110.858L146.624 147.268L110.214 147.155L97.2511 134.111Z" fill="white"/>
<path d="M250.439 215.197C260.463 225.282 260.412 241.583 250.327 251.607V251.607C240.241 261.63 223.94 261.579 213.917 251.494L200.954 238.45L201.066 202.041L237.476 202.153L250.439 215.197Z" fill="white"/>
<path d="M133.315 251.254C123.23 261.278 106.929 261.23 96.9049 251.146V251.146C86.8805 241.061 86.929 224.76 97.0131 214.736L110.055 201.771L146.465 201.879L146.357 238.289L133.315 251.254Z" fill="white"/>
<path d="M214.376 98.0546C224.46 88.0302 240.761 88.0786 250.786 98.1628V98.1628C260.81 108.247 260.761 124.548 250.677 134.572L237.635 147.537L201.225 147.429L201.334 111.019L214.376 98.0546Z" fill="white"/>
</svg>
