<svg width="1707" height="210" viewBox="0 0 1707 210" fill="none" xmlns="http://www.w3.org/2000/svg">
<circle cx="105.544" cy="104.528" r="26.3859" fill="white"/>
<path d="M79.1582 25.3705C79.1582 11.7695 90.184 0.743652 103.785 0.743652V0.743652C117.386 0.743652 128.412 11.7695 128.412 25.3705V42.9611L103.785 67.588L79.1582 42.9611L79.1582 25.3705Z" fill="white"/>
<path d="M128.413 183.686C128.413 197.287 117.387 208.313 103.786 208.313V208.313C90.1852 208.313 79.1594 197.287 79.1594 183.686L79.1594 166.096L103.786 141.469L128.413 166.096L128.413 183.686Z" fill="white"/>
<path d="M24.6269 129.155C11.0258 129.155 -4.81954e-07 118.129 -1.07647e-06 104.528V104.528C-1.67099e-06 90.9267 11.0258 79.9008 24.6268 79.9008L42.2175 79.9008L66.8443 104.528L42.2175 129.155L24.6269 129.155Z" fill="white"/>
<path d="M182.944 79.9011C196.545 79.9011 207.571 90.9269 207.571 104.528V104.528C207.571 118.129 196.545 129.155 182.944 129.155L165.354 129.155L140.727 104.528L165.354 79.9011L182.944 79.9011Z" fill="white"/>
<path d="M30.52 65.7479C20.9324 56.1008 20.9807 40.508 30.6277 30.9204V30.9204C40.2748 21.3328 55.8676 21.381 65.4552 31.0281L77.8551 43.505L77.7474 78.3324L42.9199 78.2247L30.52 65.7479Z" fill="white"/>
<path d="M177.051 143.309C186.639 152.956 186.591 168.549 176.944 178.136V178.136C167.296 187.724 151.704 187.676 142.116 178.029L129.716 165.552L129.824 130.724L164.651 130.832L177.051 143.309Z" fill="white"/>
<path d="M65.0153 177.799C55.3694 187.388 39.7766 187.342 30.1878 177.696V177.696C20.5991 168.05 20.6454 152.457 30.2913 142.868L42.7667 130.467L77.5942 130.571L77.4907 165.398L65.0153 177.799Z" fill="white"/>
<path d="M142.553 31.2572C152.199 21.6685 167.792 21.7148 177.381 31.3608V31.3608C186.969 41.0067 186.923 56.5995 177.277 66.1882L164.802 78.5896L129.974 78.4861L130.078 43.6587L142.553 31.2572Z" fill="white"/>
<mask id="path-10-outside-1_243_20" maskUnits="userSpaceOnUse" x="276.184" y="31.7437" width="736" height="139" fill="black">
<rect fill="white" x="276.184" y="31.7437" width="736" height="139"/>
<path d="M324.228 167.995C317.53 167.995 311.092 166.956 304.914 164.878C298.793 162.741 293.424 159.71 288.805 155.784C284.185 151.8 280.865 147.036 278.844 141.493L298.678 134.218C299.486 136.528 301.132 138.635 303.615 140.54C306.097 142.446 309.129 143.976 312.709 145.131C316.288 146.286 320.128 146.863 324.228 146.863C328.443 146.863 332.369 146.228 336.006 144.958C339.702 143.63 342.675 141.811 344.927 139.501C347.179 137.134 348.305 134.391 348.305 131.273C348.305 128.098 347.121 125.499 344.754 123.479C342.387 121.4 339.355 119.754 335.66 118.542C331.965 117.329 328.154 116.405 324.228 115.77C315.624 114.442 307.916 112.393 301.103 109.621C294.29 106.85 288.891 103.01 284.907 98.1021C280.981 93.1943 279.018 86.8429 279.018 79.0481C279.018 71.7153 281.125 65.3062 285.34 59.821C289.555 54.3357 295.098 50.063 301.969 47.0029C308.84 43.9427 316.26 42.4126 324.228 42.4126C330.868 42.4126 337.277 43.4519 343.455 45.5305C349.633 47.6091 355.031 50.6404 359.651 54.6244C364.327 58.6084 367.676 63.4008 369.697 69.0015L349.777 76.1901C348.969 73.8805 347.323 71.773 344.84 69.8676C342.358 67.9622 339.326 66.461 335.747 65.3639C332.167 64.2092 328.327 63.6318 324.228 63.6318C320.128 63.574 316.231 64.238 312.535 65.6238C308.898 66.9518 305.924 68.7706 303.615 71.0801C301.305 73.3897 300.15 76.0457 300.15 79.0481C300.15 82.9167 301.218 85.8325 303.355 87.7956C305.549 89.7588 308.465 91.2023 312.102 92.1261C315.74 92.9922 319.782 93.8005 324.228 94.5511C332.311 95.8214 339.788 97.9578 346.659 100.96C353.53 103.963 359.044 107.976 363.202 112.999C367.359 117.964 369.437 124.056 369.437 131.273C369.437 138.606 367.359 145.044 363.202 150.587C359.044 156.072 353.53 160.345 346.659 163.405C339.788 166.465 332.311 167.995 324.228 167.995ZM424.07 167.995C416.102 167.995 408.827 165.946 402.245 161.846C395.72 157.747 390.495 152.262 386.568 145.391C382.7 138.462 380.766 130.811 380.766 122.439C380.766 116.088 381.891 110.17 384.143 104.684C386.395 99.1414 389.484 94.2913 393.41 90.1341C397.394 85.9191 402.014 82.628 407.268 80.2607C412.522 77.8934 418.123 76.7097 424.07 76.7097C432.038 76.7097 439.284 78.7595 445.809 82.8589C452.391 86.9584 457.617 92.4725 461.485 99.4012C465.411 106.33 467.374 114.009 467.374 122.439C467.374 128.733 466.249 134.622 463.997 140.107C461.745 145.593 458.627 150.443 454.643 154.658C450.717 158.815 446.126 162.077 440.872 164.445C435.676 166.812 430.075 167.995 424.07 167.995ZM424.07 146.863C428.285 146.863 432.067 145.737 435.416 143.485C438.765 141.233 441.392 138.26 443.297 134.564C445.26 130.869 446.242 126.827 446.242 122.439C446.242 117.936 445.231 113.836 443.211 110.141C441.247 106.388 438.563 103.414 435.156 101.22C431.807 98.9682 428.112 97.8423 424.07 97.8423C419.913 97.8423 416.16 98.9682 412.811 101.22C409.462 103.472 406.806 106.474 404.843 110.227C402.88 113.98 401.898 118.051 401.898 122.439C401.898 127.001 402.909 131.129 404.929 134.824C406.95 138.52 409.635 141.464 412.984 143.658C416.391 145.795 420.086 146.863 424.07 146.863ZM475.535 133.698V79.1348H496.667V128.155C496.667 131.562 497.504 134.68 499.179 137.509C500.853 140.281 503.076 142.504 505.848 144.178C508.677 145.795 511.766 146.603 515.115 146.603C518.579 146.603 521.697 145.795 524.469 144.178C527.24 142.504 529.463 140.281 531.138 137.509C532.812 134.68 533.649 131.562 533.649 128.155V79.1348H554.782L554.868 165.744H533.736L533.649 157.862C530.647 160.98 527.096 163.463 522.996 165.311C518.897 167.101 514.509 167.995 509.832 167.995C503.538 167.995 497.793 166.465 492.597 163.405C487.4 160.287 483.243 156.159 480.125 151.02C477.065 145.824 475.535 140.05 475.535 133.698ZM572.713 165.744V35.8303H593.845V165.744H572.713ZM670.786 167.995C662.587 167.995 654.879 166.379 647.662 163.145C640.444 159.854 634.093 155.322 628.608 149.548C623.18 143.774 618.908 137.105 615.79 129.541C612.729 121.92 611.199 113.778 611.199 105.117C611.199 96.3988 612.729 88.2576 615.79 80.6937C618.908 73.0721 623.18 66.4032 628.608 60.6871C634.093 54.9131 640.444 50.4095 647.662 47.1761C654.879 43.8849 662.587 42.2394 670.786 42.2394C680.602 42.2394 689.638 44.5201 697.895 49.0815C706.152 53.5851 712.994 59.6189 718.421 67.1827L699.54 77.316C696.134 73.101 691.89 69.7233 686.809 67.1827C681.786 64.6422 676.445 63.3719 670.786 63.3719C665.474 63.3719 660.48 64.469 655.803 66.6631C651.126 68.7994 647.027 71.8019 643.504 75.6704C639.982 79.4812 637.24 83.9271 635.277 89.0082C633.313 94.0315 632.332 99.4012 632.332 105.117C632.332 110.891 633.313 116.29 635.277 121.313C637.297 126.337 640.069 130.783 643.591 134.651C647.113 138.462 651.184 141.464 655.803 143.658C660.48 145.795 665.474 146.863 670.786 146.863C676.56 146.863 681.93 145.593 686.896 143.052C691.919 140.454 696.134 137.047 699.54 132.832L718.421 143.052C712.994 150.558 706.152 156.592 697.895 161.153C689.638 165.715 680.602 167.995 670.786 167.995ZM734.176 165.744L734.089 79.1348H755.222L755.308 86.8429C758.253 83.725 761.775 81.2711 765.875 79.4812C769.974 77.6335 774.391 76.7097 779.126 76.7097C782.302 76.7097 785.477 77.1716 788.653 78.0954L780.338 99.4012C778.144 98.5351 775.95 98.1021 773.756 98.1021C770.349 98.1021 767.232 98.9393 764.402 100.614C761.631 102.23 759.408 104.453 757.733 107.283C756.117 110.054 755.308 113.143 755.308 116.55V165.744H734.176ZM859.613 79.1348H880.745V165.744H859.613L858.66 155.004C856.293 158.873 853.146 162.019 849.22 164.445C845.351 166.812 840.761 167.995 835.449 167.995C829.04 167.995 823.035 166.783 817.434 164.358C811.833 161.933 806.897 158.584 802.624 154.311C798.409 150.039 795.089 145.102 792.664 139.501C790.297 133.9 789.113 127.896 789.113 121.487C789.113 115.308 790.239 109.506 792.491 104.078C794.8 98.6506 798.005 93.8871 802.104 89.7876C806.204 85.6882 810.938 82.4836 816.308 80.1741C821.678 77.8645 827.452 76.7097 833.63 76.7097C839.346 76.7097 844.456 77.98 848.96 80.5205C853.521 83.061 857.39 86.2944 860.565 90.2207L859.613 79.1348ZM834.929 147.642C839.433 147.642 843.417 146.516 846.881 144.265C850.345 142.013 853.059 138.982 855.022 135.171C856.985 131.302 857.967 127.058 857.967 122.439C857.967 117.762 856.985 113.518 855.022 109.708C853.059 105.839 850.317 102.779 846.795 100.527C843.33 98.2753 839.375 97.1494 834.929 97.1494C830.483 97.1494 826.413 98.3042 822.717 100.614C819.08 102.866 816.164 105.897 813.97 109.708C811.833 113.518 810.765 117.762 810.765 122.439C810.765 127.116 811.862 131.36 814.056 135.171C816.25 138.982 819.166 142.013 822.804 144.265C826.499 146.516 830.541 147.642 834.929 147.642ZM922.514 60.9469V79.1348H946.158V100.267H922.514V165.744H901.381V100.267H891.941V79.1348H901.381V60.9469C901.381 55.9813 902.594 51.4488 905.019 47.3493C907.501 43.1921 910.821 39.9009 914.979 37.4759C919.136 34.9931 923.726 33.7517 928.75 33.7517C932.387 33.7517 935.996 34.5023 939.576 36.0035C943.155 37.5047 946.331 39.8143 949.103 42.9322L933.859 57.829C933.34 56.8474 932.589 56.1257 931.608 55.6637C930.684 55.1441 929.731 54.8843 928.75 54.8843C927.075 54.8843 925.603 55.4905 924.332 56.703C923.12 57.8578 922.514 59.2724 922.514 60.9469ZM1009.72 100.267H992.919V165.744H971.786V100.267H958.968V79.1348H971.786V51.9396H992.919V79.1348H1009.72V100.267Z"/>
</mask>
<path d="M324.228 167.995C317.53 167.995 311.092 166.956 304.914 164.878C298.793 162.741 293.424 159.71 288.805 155.784C284.185 151.8 280.865 147.036 278.844 141.493L298.678 134.218C299.486 136.528 301.132 138.635 303.615 140.54C306.097 142.446 309.129 143.976 312.709 145.131C316.288 146.286 320.128 146.863 324.228 146.863C328.443 146.863 332.369 146.228 336.006 144.958C339.702 143.63 342.675 141.811 344.927 139.501C347.179 137.134 348.305 134.391 348.305 131.273C348.305 128.098 347.121 125.499 344.754 123.479C342.387 121.4 339.355 119.754 335.66 118.542C331.965 117.329 328.154 116.405 324.228 115.77C315.624 114.442 307.916 112.393 301.103 109.621C294.29 106.85 288.891 103.01 284.907 98.1021C280.981 93.1943 279.018 86.8429 279.018 79.0481C279.018 71.7153 281.125 65.3062 285.34 59.821C289.555 54.3357 295.098 50.063 301.969 47.0029C308.84 43.9427 316.26 42.4126 324.228 42.4126C330.868 42.4126 337.277 43.4519 343.455 45.5305C349.633 47.6091 355.031 50.6404 359.651 54.6244C364.327 58.6084 367.676 63.4008 369.697 69.0015L349.777 76.1901C348.969 73.8805 347.323 71.773 344.84 69.8676C342.358 67.9622 339.326 66.461 335.747 65.3639C332.167 64.2092 328.327 63.6318 324.228 63.6318C320.128 63.574 316.231 64.238 312.535 65.6238C308.898 66.9518 305.924 68.7706 303.615 71.0801C301.305 73.3897 300.15 76.0457 300.15 79.0481C300.15 82.9167 301.218 85.8325 303.355 87.7956C305.549 89.7588 308.465 91.2023 312.102 92.1261C315.74 92.9922 319.782 93.8005 324.228 94.5511C332.311 95.8214 339.788 97.9578 346.659 100.96C353.53 103.963 359.044 107.976 363.202 112.999C367.359 117.964 369.437 124.056 369.437 131.273C369.437 138.606 367.359 145.044 363.202 150.587C359.044 156.072 353.53 160.345 346.659 163.405C339.788 166.465 332.311 167.995 324.228 167.995ZM424.07 167.995C416.102 167.995 408.827 165.946 402.245 161.846C395.72 157.747 390.495 152.262 386.568 145.391C382.7 138.462 380.766 130.811 380.766 122.439C380.766 116.088 381.891 110.17 384.143 104.684C386.395 99.1414 389.484 94.2913 393.41 90.1341C397.394 85.9191 402.014 82.628 407.268 80.2607C412.522 77.8934 418.123 76.7097 424.07 76.7097C432.038 76.7097 439.284 78.7595 445.809 82.8589C452.391 86.9584 457.617 92.4725 461.485 99.4012C465.411 106.33 467.374 114.009 467.374 122.439C467.374 128.733 466.249 134.622 463.997 140.107C461.745 145.593 458.627 150.443 454.643 154.658C450.717 158.815 446.126 162.077 440.872 164.445C435.676 166.812 430.075 167.995 424.07 167.995ZM424.07 146.863C428.285 146.863 432.067 145.737 435.416 143.485C438.765 141.233 441.392 138.26 443.297 134.564C445.26 130.869 446.242 126.827 446.242 122.439C446.242 117.936 445.231 113.836 443.211 110.141C441.247 106.388 438.563 103.414 435.156 101.22C431.807 98.9682 428.112 97.8423 424.07 97.8423C419.913 97.8423 416.16 98.9682 412.811 101.22C409.462 103.472 406.806 106.474 404.843 110.227C402.88 113.98 401.898 118.051 401.898 122.439C401.898 127.001 402.909 131.129 404.929 134.824C406.95 138.52 409.635 141.464 412.984 143.658C416.391 145.795 420.086 146.863 424.07 146.863ZM475.535 133.698V79.1348H496.667V128.155C496.667 131.562 497.504 134.68 499.179 137.509C500.853 140.281 503.076 142.504 505.848 144.178C508.677 145.795 511.766 146.603 515.115 146.603C518.579 146.603 521.697 145.795 524.469 144.178C527.24 142.504 529.463 140.281 531.138 137.509C532.812 134.68 533.649 131.562 533.649 128.155V79.1348H554.782L554.868 165.744H533.736L533.649 157.862C530.647 160.98 527.096 163.463 522.996 165.311C518.897 167.101 514.509 167.995 509.832 167.995C503.538 167.995 497.793 166.465 492.597 163.405C487.4 160.287 483.243 156.159 480.125 151.02C477.065 145.824 475.535 140.05 475.535 133.698ZM572.713 165.744V35.8303H593.845V165.744H572.713ZM670.786 167.995C662.587 167.995 654.879 166.379 647.662 163.145C640.444 159.854 634.093 155.322 628.608 149.548C623.18 143.774 618.908 137.105 615.79 129.541C612.729 121.92 611.199 113.778 611.199 105.117C611.199 96.3988 612.729 88.2576 615.79 80.6937C618.908 73.0721 623.18 66.4032 628.608 60.6871C634.093 54.9131 640.444 50.4095 647.662 47.1761C654.879 43.8849 662.587 42.2394 670.786 42.2394C680.602 42.2394 689.638 44.5201 697.895 49.0815C706.152 53.5851 712.994 59.6189 718.421 67.1827L699.54 77.316C696.134 73.101 691.89 69.7233 686.809 67.1827C681.786 64.6422 676.445 63.3719 670.786 63.3719C665.474 63.3719 660.48 64.469 655.803 66.6631C651.126 68.7994 647.027 71.8019 643.504 75.6704C639.982 79.4812 637.24 83.9271 635.277 89.0082C633.313 94.0315 632.332 99.4012 632.332 105.117C632.332 110.891 633.313 116.29 635.277 121.313C637.297 126.337 640.069 130.783 643.591 134.651C647.113 138.462 651.184 141.464 655.803 143.658C660.48 145.795 665.474 146.863 670.786 146.863C676.56 146.863 681.93 145.593 686.896 143.052C691.919 140.454 696.134 137.047 699.54 132.832L718.421 143.052C712.994 150.558 706.152 156.592 697.895 161.153C689.638 165.715 680.602 167.995 670.786 167.995ZM734.176 165.744L734.089 79.1348H755.222L755.308 86.8429C758.253 83.725 761.775 81.2711 765.875 79.4812C769.974 77.6335 774.391 76.7097 779.126 76.7097C782.302 76.7097 785.477 77.1716 788.653 78.0954L780.338 99.4012C778.144 98.5351 775.95 98.1021 773.756 98.1021C770.349 98.1021 767.232 98.9393 764.402 100.614C761.631 102.23 759.408 104.453 757.733 107.283C756.117 110.054 755.308 113.143 755.308 116.55V165.744H734.176ZM859.613 79.1348H880.745V165.744H859.613L858.66 155.004C856.293 158.873 853.146 162.019 849.22 164.445C845.351 166.812 840.761 167.995 835.449 167.995C829.04 167.995 823.035 166.783 817.434 164.358C811.833 161.933 806.897 158.584 802.624 154.311C798.409 150.039 795.089 145.102 792.664 139.501C790.297 133.9 789.113 127.896 789.113 121.487C789.113 115.308 790.239 109.506 792.491 104.078C794.8 98.6506 798.005 93.8871 802.104 89.7876C806.204 85.6882 810.938 82.4836 816.308 80.1741C821.678 77.8645 827.452 76.7097 833.63 76.7097C839.346 76.7097 844.456 77.98 848.96 80.5205C853.521 83.061 857.39 86.2944 860.565 90.2207L859.613 79.1348ZM834.929 147.642C839.433 147.642 843.417 146.516 846.881 144.265C850.345 142.013 853.059 138.982 855.022 135.171C856.985 131.302 857.967 127.058 857.967 122.439C857.967 117.762 856.985 113.518 855.022 109.708C853.059 105.839 850.317 102.779 846.795 100.527C843.33 98.2753 839.375 97.1494 834.929 97.1494C830.483 97.1494 826.413 98.3042 822.717 100.614C819.08 102.866 816.164 105.897 813.97 109.708C811.833 113.518 810.765 117.762 810.765 122.439C810.765 127.116 811.862 131.36 814.056 135.171C816.25 138.982 819.166 142.013 822.804 144.265C826.499 146.516 830.541 147.642 834.929 147.642ZM922.514 60.9469V79.1348H946.158V100.267H922.514V165.744H901.381V100.267H891.941V79.1348H901.381V60.9469C901.381 55.9813 902.594 51.4488 905.019 47.3493C907.501 43.1921 910.821 39.9009 914.979 37.4759C919.136 34.9931 923.726 33.7517 928.75 33.7517C932.387 33.7517 935.996 34.5023 939.576 36.0035C943.155 37.5047 946.331 39.8143 949.103 42.9322L933.859 57.829C933.34 56.8474 932.589 56.1257 931.608 55.6637C930.684 55.1441 929.731 54.8843 928.75 54.8843C927.075 54.8843 925.603 55.4905 924.332 56.703C923.12 57.8578 922.514 59.2724 922.514 60.9469ZM1009.72 100.267H992.919V165.744H971.786V100.267H958.968V79.1348H971.786V51.9396H992.919V79.1348H1009.72V100.267Z" fill="white"/>
<path d="M304.914 164.878L304.302 166.629L304.312 166.633L304.322 166.636L304.914 164.878ZM288.805 155.784L287.593 157.189L287.603 157.197L288.805 155.784ZM278.844 141.493L278.205 139.751L276.467 140.389L277.101 142.129L278.844 141.493ZM298.678 134.218L300.429 133.605L299.807 131.827L298.039 132.476L298.678 134.218ZM303.615 140.54L302.485 142.013L302.485 142.013L303.615 140.54ZM312.709 145.131L312.139 146.897L312.139 146.897L312.709 145.131ZM336.006 144.958L336.618 146.709L336.626 146.707L336.634 146.704L336.006 144.958ZM344.927 139.501L346.256 140.797L346.264 140.788L346.272 140.78L344.927 139.501ZM344.754 123.479L343.53 124.873L343.539 124.881L343.549 124.89L344.754 123.479ZM335.66 118.542L335.081 120.305L335.081 120.305L335.66 118.542ZM324.228 115.77L324.524 113.939L324.511 113.936L324.228 115.77ZM301.103 109.621L300.404 111.34L300.404 111.34L301.103 109.621ZM284.907 98.1021L283.458 99.2613L283.466 99.2716L284.907 98.1021ZM285.34 59.821L286.812 60.9516L286.812 60.9516L285.34 59.821ZM301.969 47.0029L301.214 45.3078L301.214 45.3078L301.969 47.0029ZM343.455 45.5305L342.863 47.2892L342.863 47.2892L343.455 45.5305ZM359.651 54.6244L358.439 56.0296L358.447 56.037L359.651 54.6244ZM369.697 69.0015L370.327 70.7469L372.072 70.1171L371.443 68.3717L369.697 69.0015ZM349.777 76.1901L348.026 76.803L348.645 78.5714L350.407 77.9355L349.777 76.1901ZM344.84 69.8676L343.711 71.3397L343.711 71.3397L344.84 69.8676ZM335.747 65.3639L335.177 67.1299L335.19 67.1341L335.203 67.1381L335.747 65.3639ZM324.228 63.6318L324.201 65.4872L324.214 65.4873H324.228V63.6318ZM312.535 65.6238L313.172 67.3668L313.179 67.364L313.187 67.3612L312.535 65.6238ZM303.615 71.0801L302.303 69.768L302.303 69.768L303.615 71.0801ZM303.355 87.7956L302.099 89.162L302.108 89.1703L302.118 89.1785L303.355 87.7956ZM312.102 92.1261L311.646 93.9246L311.659 93.928L311.673 93.9312L312.102 92.1261ZM324.228 94.5511L323.919 96.3808L323.929 96.3826L323.939 96.3842L324.228 94.5511ZM346.659 100.96L345.916 102.661L345.916 102.661L346.659 100.96ZM363.202 112.999L361.772 114.182L361.779 114.19L363.202 112.999ZM363.202 150.587L364.68 151.708L364.686 151.7L363.202 150.587ZM346.659 163.405L345.904 161.71L345.904 161.71L346.659 163.405ZM324.228 166.14C317.725 166.14 311.488 165.132 305.505 163.119L304.322 166.636C310.696 168.781 317.334 169.851 324.228 169.851V166.14ZM305.525 163.126C299.606 161.059 294.439 158.138 290.006 154.37L287.603 157.197C292.408 161.282 297.981 164.423 304.302 166.629L305.525 163.126ZM290.016 154.378C285.629 150.594 282.496 146.093 280.588 140.858L277.101 142.129C279.234 147.98 282.742 153.005 287.593 157.189L290.016 154.378ZM279.483 143.235L299.317 135.96L298.039 132.476L278.205 139.751L279.483 143.235ZM296.927 134.831C297.883 137.565 299.795 139.948 302.485 142.013L304.744 139.068C302.469 137.322 301.089 135.49 300.429 133.605L296.927 134.831ZM302.485 142.013C305.166 144.07 308.397 145.69 312.139 146.897L313.278 143.365C309.861 142.262 307.029 140.821 304.744 139.068L302.485 142.013ZM312.139 146.897C315.919 148.116 319.952 148.718 324.228 148.718V145.007C320.304 145.007 316.658 144.455 313.278 143.365L312.139 146.897ZM324.228 148.718C328.631 148.718 332.766 148.054 336.618 146.709L335.395 143.206C331.971 144.401 328.254 145.007 324.228 145.007V148.718ZM336.634 146.704C340.537 145.301 343.769 143.347 346.256 140.797L343.598 138.206C341.581 140.275 338.866 141.958 335.379 143.211L336.634 146.704ZM346.272 140.78C348.834 138.086 350.16 134.892 350.16 131.273H346.449C346.449 133.891 345.524 136.182 343.583 138.222L346.272 140.78ZM350.16 131.273C350.16 127.567 348.748 124.449 345.959 122.067L343.549 124.89C345.494 126.55 346.449 128.628 346.449 131.273H350.16ZM345.978 122.084C343.384 119.806 340.117 118.052 336.238 116.779L335.081 120.305C338.593 121.457 341.389 122.993 343.53 124.873L345.978 122.084ZM336.238 116.779C332.449 115.535 328.544 114.589 324.524 113.939L323.931 117.602C327.764 118.222 331.48 119.123 335.081 120.305L336.238 116.779ZM324.511 113.936C316.025 112.627 308.46 110.61 301.802 107.902L300.404 111.34C307.373 114.175 315.224 116.258 323.944 117.604L324.511 113.936ZM301.802 107.902C295.231 105.229 290.105 101.561 286.348 96.9326L283.466 99.2716C287.677 104.459 293.349 108.47 300.404 111.34L301.802 107.902ZM286.356 96.9429C282.751 92.4369 280.873 86.5254 280.873 79.0481H277.162C277.162 87.1605 279.21 93.9516 283.458 99.2613L286.356 96.9429ZM280.873 79.0481C280.873 72.0979 282.861 66.0924 286.812 60.9516L283.869 58.6904C279.389 64.52 277.162 71.3326 277.162 79.0481H280.873ZM286.812 60.9516C290.822 55.7322 296.11 51.6437 302.724 48.6979L301.214 45.3078C294.086 48.4823 288.288 52.9393 283.869 58.6904L286.812 60.9516ZM302.724 48.6979C309.343 45.7498 316.504 44.2682 324.228 44.2682V40.557C316.015 40.557 308.337 42.1356 301.214 45.3078L302.724 48.6979ZM324.228 44.2682C330.67 44.2682 336.879 45.276 342.863 47.2892L344.046 43.7718C337.674 41.6278 331.065 40.557 324.228 40.557V44.2682ZM342.863 47.2892C348.829 49.2965 354.014 52.213 358.439 56.0296L360.863 53.2193C356.049 49.0679 350.436 45.9217 344.046 43.7718L342.863 47.2892ZM358.447 56.037C362.887 59.8186 366.044 64.3442 367.952 69.6313L371.443 68.3717C369.309 62.4574 365.768 57.3983 360.854 53.2119L358.447 56.037ZM369.067 67.2561L349.147 74.4446L350.407 77.9355L370.327 70.7469L369.067 67.2561ZM351.529 75.5771C350.572 72.8433 348.66 70.4599 345.97 68.3956L343.711 71.3397C345.986 73.0861 347.366 74.9177 348.026 76.803L351.529 75.5771ZM345.97 68.3956C343.281 66.3317 340.041 64.7393 336.29 63.5898L335.203 67.1381C338.611 68.1826 341.434 69.5927 343.711 71.3397L345.97 68.3956ZM336.316 63.598C332.537 62.3787 328.503 61.7762 324.228 61.7762V65.4873C328.151 65.4873 331.797 66.0396 335.177 67.1299L336.316 63.598ZM324.254 61.7764C319.932 61.7155 315.804 62.4162 311.884 63.8863L313.187 67.3612C316.657 66.0598 320.324 65.4325 324.201 65.4872L324.254 61.7764ZM311.899 63.8807C308.054 65.2844 304.835 67.2351 302.303 69.768L304.927 72.3922C307.013 70.306 309.741 68.6191 313.172 67.3668L311.899 63.8807ZM302.303 69.768C299.679 72.3919 298.295 75.5079 298.295 79.0481H302.006C302.006 76.5835 302.931 74.3875 304.927 72.3922L302.303 69.768ZM298.295 79.0481C298.295 83.2547 299.465 86.7411 302.099 89.162L304.61 86.4293C302.972 84.9239 302.006 82.5786 302.006 79.0481H298.295ZM302.118 89.1785C304.587 91.3883 307.796 92.9468 311.646 93.9246L312.559 90.3276C309.134 89.4577 306.51 88.1292 304.592 86.4128L302.118 89.1785ZM311.673 93.9312C315.357 94.8085 319.44 95.6247 323.919 96.3808L324.536 92.7215C320.123 91.9763 316.123 91.1758 312.532 90.321L311.673 93.9312ZM323.939 96.3842C331.88 97.6321 339.203 99.7271 345.916 102.661L347.402 99.2599C340.373 96.1884 332.742 94.0107 324.516 92.7181L323.939 96.3842ZM345.916 102.661C352.561 105.564 357.826 109.414 361.772 114.182L364.631 111.816C360.263 106.537 354.499 102.361 347.402 99.2599L345.916 102.661ZM361.779 114.19C365.624 118.783 367.582 124.438 367.582 131.273H371.293C371.293 123.674 369.093 117.146 364.624 111.808L361.779 114.19ZM367.582 131.273C367.582 138.23 365.619 144.271 361.717 149.474L364.686 151.7C369.099 145.817 371.293 138.983 371.293 131.273H367.582ZM361.723 149.466C357.772 154.679 352.517 158.765 345.904 161.71L347.414 165.1C354.544 161.925 360.317 157.465 364.68 151.708L361.723 149.466ZM345.904 161.71C339.288 164.657 332.071 166.14 324.228 166.14V169.851C332.551 169.851 340.288 168.274 347.414 165.1L345.904 161.71ZM402.245 161.846L401.257 163.417L401.264 163.421L402.245 161.846ZM386.568 145.391L384.948 146.295L384.953 146.303L384.957 146.311L386.568 145.391ZM384.143 104.684L385.86 105.389L385.862 105.383L384.143 104.684ZM393.41 90.1341L392.062 88.8595L392.061 88.86L393.41 90.1341ZM407.268 80.2607L406.506 78.5689L406.506 78.5689L407.268 80.2607ZM445.809 82.8589L444.822 84.4301L444.828 84.434L445.809 82.8589ZM461.485 99.4012L459.865 100.306L459.871 100.316L461.485 99.4012ZM463.997 140.107L462.28 139.403L462.28 139.403L463.997 140.107ZM454.643 154.658L453.294 153.383L453.294 153.384L454.643 154.658ZM440.872 164.445L440.11 162.753L440.103 162.756L440.872 164.445ZM435.416 143.485L436.451 145.025L436.451 145.025L435.416 143.485ZM443.297 134.564L441.658 133.694L441.653 133.704L441.648 133.714L443.297 134.564ZM443.211 110.141L441.566 111.001L441.574 111.016L441.583 111.031L443.211 110.141ZM435.156 101.22L434.121 102.76L434.136 102.77L434.151 102.78L435.156 101.22ZM412.811 101.22L411.775 99.6802L411.775 99.6802L412.811 101.22ZM404.843 110.227L406.487 111.087L406.487 111.087L404.843 110.227ZM412.984 143.658L411.967 145.211L411.983 145.221L411.998 145.23L412.984 143.658ZM424.07 166.14C416.439 166.14 409.505 164.182 403.226 160.271L401.264 163.421C408.149 167.709 415.765 169.851 424.07 169.851V166.14ZM403.232 160.275C396.973 156.342 391.959 151.084 388.179 144.47L384.957 146.311C389.031 153.44 394.467 159.151 401.257 163.417L403.232 160.275ZM388.189 144.486C384.483 137.849 382.621 130.513 382.621 122.439H378.91C378.91 131.11 380.917 139.075 384.948 146.295L388.189 144.486ZM382.621 122.439C382.621 116.312 383.706 110.635 385.86 105.389L382.427 103.98C380.077 109.704 378.91 115.864 378.91 122.439H382.621ZM385.862 105.383C388.032 100.043 390.998 95.3904 394.759 91.4082L392.061 88.86C387.97 93.1922 384.759 98.2398 382.424 103.986L385.862 105.383ZM394.759 91.4087C398.578 87.3686 402.998 84.2197 408.03 81.9525L406.506 78.5689C401.029 81.0363 396.211 84.4697 392.062 88.8595L394.759 91.4087ZM408.03 81.9525C413.037 79.6966 418.377 78.5653 424.07 78.5653V74.8541C417.869 74.8541 412.007 76.0901 406.506 78.5689L408.03 81.9525ZM424.07 78.5653C431.701 78.5653 438.603 80.523 444.822 84.4301L446.796 81.2878C439.965 76.9959 432.375 74.8541 424.07 74.8541V78.5653ZM444.828 84.434C451.137 88.3636 456.146 93.6444 459.865 100.306L463.105 98.4967C459.087 91.3007 453.645 85.5532 446.79 81.2839L444.828 84.434ZM459.871 100.316C463.63 106.949 465.519 114.31 465.519 122.439H469.23C469.23 113.708 467.193 105.711 463.099 98.4864L459.871 100.316ZM465.519 122.439C465.519 128.506 464.435 134.155 462.28 139.403L465.713 140.812C468.062 135.09 469.23 128.959 469.23 122.439H465.519ZM462.28 139.403C460.113 144.682 457.118 149.338 453.294 153.383L455.991 155.932C460.136 151.548 463.377 146.504 465.713 140.812L462.28 139.403ZM453.294 153.384C449.535 157.363 445.145 160.484 440.11 162.753L441.634 166.136C447.108 163.67 451.898 160.267 455.992 155.932L453.294 153.384ZM440.103 162.756C435.16 165.008 429.823 166.14 424.07 166.14V169.851C430.326 169.851 436.191 168.616 441.641 166.133L440.103 162.756ZM424.07 148.718C428.636 148.718 432.782 147.492 436.451 145.025L434.38 141.945C431.352 143.982 427.933 145.007 424.07 145.007V148.718ZM436.451 145.025C440.068 142.593 442.902 139.379 444.946 135.415L441.648 133.714C439.881 137.14 437.462 139.873 434.38 141.945L436.451 145.025ZM444.936 135.435C447.048 131.458 448.097 127.116 448.097 122.439H444.386C444.386 126.539 443.472 130.28 441.658 133.694L444.936 135.435ZM448.097 122.439C448.097 117.647 447.019 113.238 444.839 109.25L441.583 111.031C443.444 114.435 444.386 118.224 444.386 122.439H448.097ZM444.855 109.281C442.75 105.256 439.85 102.036 436.161 99.66L434.151 102.78C437.275 104.792 439.745 107.519 441.566 111.001L444.855 109.281ZM436.191 99.6802C432.536 97.2222 428.48 95.9867 424.07 95.9867V99.6979C427.744 99.6979 431.078 100.714 434.121 102.76L436.191 99.6802ZM424.07 95.9867C419.556 95.9867 415.44 97.216 411.775 99.6802L413.846 102.76C416.879 100.72 420.27 99.6979 424.07 99.6979V95.9867ZM411.775 99.6802C408.157 102.113 405.298 105.355 403.199 109.367L406.487 111.087C408.314 107.594 410.767 104.831 413.846 102.76L411.775 99.6802ZM403.199 109.367C401.092 113.396 400.043 117.763 400.043 122.439H403.754C403.754 118.339 404.668 114.565 406.487 111.087L403.199 109.367ZM400.043 122.439C400.043 127.285 401.119 131.724 403.301 135.715L406.557 133.934C404.698 130.534 403.754 126.716 403.754 122.439H400.043ZM403.301 135.715C405.461 139.663 408.35 142.841 411.967 145.211L414.001 142.106C410.92 140.088 408.44 137.376 406.557 133.934L403.301 135.715ZM411.998 145.23C415.697 147.55 419.734 148.718 424.07 148.718V145.007C420.438 145.007 417.084 144.039 413.97 142.086L411.998 145.23ZM475.535 79.1348V77.2792H473.679V79.1348H475.535ZM496.667 79.1348H498.523V77.2792H496.667V79.1348ZM499.179 137.509L497.582 138.454L497.586 138.461L497.591 138.469L499.179 137.509ZM505.848 144.178L504.888 145.766L504.908 145.778L504.927 145.789L505.848 144.178ZM524.469 144.178L525.404 145.781L525.416 145.774L525.428 145.766L524.469 144.178ZM531.138 137.509L532.726 138.469L532.73 138.461L532.734 138.454L531.138 137.509ZM533.649 79.1348V77.2792H531.794V79.1348H533.649ZM554.782 79.1348L556.637 79.1329L556.636 77.2792H554.782V79.1348ZM554.868 165.744V167.599H556.726L556.724 165.742L554.868 165.744ZM533.736 165.744L531.88 165.764L531.901 167.599H533.736V165.744ZM533.649 157.862L535.505 157.842L535.455 153.312L532.313 156.575L533.649 157.862ZM522.996 165.311L523.739 167.011L523.749 167.007L523.759 167.002L522.996 165.311ZM492.597 163.405L491.642 164.996L491.648 165L491.655 165.004L492.597 163.405ZM480.125 151.02L478.526 151.962L478.532 151.972L478.539 151.983L480.125 151.02ZM477.39 133.698V79.1348H473.679V133.698H477.39ZM475.535 80.9903H496.667V77.2792H475.535V80.9903ZM494.812 79.1348V128.155H498.523V79.1348H494.812ZM494.812 128.155C494.812 131.882 495.732 135.328 497.582 138.454L500.776 136.564C499.277 134.032 498.523 131.242 498.523 128.155H494.812ZM497.591 138.469C499.421 141.498 501.859 143.936 504.888 145.766L506.807 142.59C504.293 141.071 502.286 139.064 500.767 136.55L497.591 138.469ZM504.927 145.789C508.045 147.571 511.452 148.459 515.115 148.459V144.748C512.08 144.748 509.309 144.019 506.768 142.567L504.927 145.789ZM515.115 148.459C518.881 148.459 522.326 147.576 525.404 145.781L523.534 142.575C521.068 144.013 518.278 144.748 515.115 144.748V148.459ZM525.428 145.766C528.457 143.936 530.896 141.498 532.726 138.469L529.549 136.55C528.03 139.064 526.023 141.071 523.509 142.59L525.428 145.766ZM532.734 138.454C534.585 135.328 535.505 131.882 535.505 128.155H531.794C531.794 131.242 531.039 134.032 529.541 136.564L532.734 138.454ZM535.505 128.155V79.1348H531.794V128.155H535.505ZM533.649 80.9903H554.782V77.2792H533.649V80.9903ZM552.926 79.1366L553.013 165.746L556.724 165.742L556.637 79.1329L552.926 79.1366ZM554.868 163.888H533.736V167.599H554.868V163.888ZM535.591 165.723L535.505 157.842L531.794 157.883L531.88 165.764L535.591 165.723ZM532.313 156.575C529.48 159.516 526.126 161.864 522.234 163.619L523.759 167.002C528.065 165.061 531.813 162.444 534.986 159.149L532.313 156.575ZM522.254 163.61C518.399 165.293 514.265 166.14 509.832 166.14V169.851C514.752 169.851 519.394 168.908 523.739 167.011L522.254 163.61ZM509.832 166.14C503.854 166.14 498.437 164.691 493.538 161.806L491.655 165.004C497.15 168.24 503.222 169.851 509.832 169.851V166.14ZM493.551 161.814C488.611 158.85 484.672 154.936 481.711 150.058L478.539 151.983C481.814 157.381 486.189 161.725 491.642 164.996L493.551 161.814ZM481.724 150.079C478.841 145.183 477.39 139.737 477.39 133.698H473.679C473.679 140.362 475.289 146.464 478.526 151.962L481.724 150.079ZM572.713 165.744H570.857V167.599H572.713V165.744ZM572.713 35.8303V33.9747H570.857V35.8303H572.713ZM593.845 35.8303H595.701V33.9747H593.845V35.8303ZM593.845 165.744V167.599H595.701V165.744H593.845ZM574.568 165.744V35.8303H570.857V165.744H574.568ZM572.713 37.6859H593.845V33.9747H572.713V37.6859ZM591.99 35.8303V165.744H595.701V35.8303H591.99ZM593.845 163.888H572.713V167.599H593.845V163.888ZM647.662 163.145L646.892 164.834L646.903 164.839L647.662 163.145ZM628.608 149.548L627.256 150.819L627.262 150.826L628.608 149.548ZM615.79 129.541L614.068 130.233L614.071 130.24L614.074 130.248L615.79 129.541ZM615.79 80.6937L614.072 79.9911L614.069 79.9978L615.79 80.6937ZM628.608 60.6871L627.262 59.409L627.262 59.4094L628.608 60.6871ZM647.662 47.1761L648.42 48.8695L648.432 48.8644L647.662 47.1761ZM697.895 49.0815L696.998 50.7057L697.006 50.7105L697.895 49.0815ZM718.421 67.1827L719.299 68.8177L721.161 67.8182L719.929 66.1009L718.421 67.1827ZM699.54 77.316L698.097 78.4824L699.063 79.6779L700.418 78.951L699.54 77.316ZM686.809 67.1827L685.971 68.8386L685.979 68.8424L686.809 67.1827ZM655.803 66.6631L656.574 68.3509L656.582 68.347L656.591 68.343L655.803 66.6631ZM643.504 75.6704L644.867 76.9299L644.877 76.9196L643.504 75.6704ZM635.277 89.0082L637.005 89.6836L637.007 89.6769L635.277 89.0082ZM635.277 121.313L633.548 121.989L633.552 121.997L633.555 122.006L635.277 121.313ZM643.591 134.651L642.219 135.9L642.228 135.911L643.591 134.651ZM655.803 143.658L655.007 145.334L655.019 145.34L655.032 145.346L655.803 143.658ZM686.896 143.052L687.741 144.704L687.748 144.7L686.896 143.052ZM699.54 132.832L700.424 131.2L699.067 130.466L698.097 131.666L699.54 132.832ZM718.421 143.052L719.925 144.139L721.163 142.426L719.304 141.42L718.421 143.052ZM697.895 161.153L698.792 162.778L698.792 162.778L697.895 161.153ZM670.786 166.14C662.839 166.14 655.39 164.575 648.42 161.452L646.903 164.839C654.368 168.183 662.336 169.851 670.786 169.851V166.14ZM648.432 161.457C641.431 158.265 635.275 153.872 629.953 148.27L627.262 150.826C632.911 156.771 639.457 161.444 646.892 164.834L648.432 161.457ZM629.96 148.277C624.692 142.673 620.54 136.196 617.505 128.834L614.074 130.248C617.275 138.014 621.669 144.875 627.256 150.819L629.96 148.277ZM617.512 128.85C614.544 121.46 613.055 113.555 613.055 105.117H609.344C609.344 114.002 610.914 122.379 614.068 130.233L617.512 128.85ZM613.055 105.117C613.055 96.6208 614.545 88.7176 617.51 81.3896L614.069 79.9978C610.914 87.7976 609.344 96.1768 609.344 105.117H613.055ZM617.507 81.3963C620.542 73.9781 624.691 67.5065 629.953 61.9647L627.262 59.4094C621.669 65.3 617.273 72.1661 614.072 79.9911L617.507 81.3963ZM629.953 61.9651C635.273 56.3653 641.425 52.0033 648.42 48.8695L646.903 45.4827C639.463 48.8157 632.913 53.461 627.262 59.409L629.953 61.9651ZM648.432 48.8644C655.399 45.6872 662.844 44.0949 670.786 44.0949V40.3838C662.331 40.3838 654.359 42.0826 646.892 45.4877L648.432 48.8644ZM670.786 44.0949C680.301 44.0949 689.027 46.3023 696.998 50.7057L698.792 47.4573C690.249 42.7378 680.903 40.3838 670.786 40.3838V44.0949ZM697.006 50.7105C705.021 55.082 711.65 60.9297 716.914 68.2645L719.929 66.1009C714.337 58.3081 707.282 52.0883 698.783 47.4525L697.006 50.7105ZM717.544 65.5477L698.663 75.681L700.418 78.951L719.299 68.8177L717.544 65.5477ZM700.984 76.1496C697.402 71.7183 692.945 68.1764 687.639 65.523L685.979 68.8424C690.834 71.2701 694.865 74.4837 698.097 78.4824L700.984 76.1496ZM687.646 65.5269C682.362 62.8543 676.734 61.5164 670.786 61.5164V65.2275C676.155 65.2275 681.209 66.4301 685.971 68.8386L687.646 65.5269ZM670.786 61.5164C665.21 61.5164 659.945 62.6701 655.015 64.9832L656.591 68.343C661.014 66.2679 665.739 65.2275 670.786 65.2275V61.5164ZM655.032 64.9752C650.123 67.2176 645.82 70.3707 642.132 74.4212L644.877 76.9196C648.233 73.233 652.129 70.3813 656.574 68.3509L655.032 64.9752ZM642.142 74.4109C638.453 78.4021 635.589 83.051 633.546 88.3394L637.007 89.6769C638.891 84.8032 641.512 80.5603 644.867 76.9299L642.142 74.4109ZM633.548 88.3327C631.496 93.584 630.476 99.1841 630.476 105.117H634.187C634.187 99.6183 635.131 94.479 637.005 89.6836L633.548 88.3327ZM630.476 105.117C630.476 111.106 631.495 116.735 633.548 121.989L637.005 120.638C635.132 115.845 634.187 110.677 634.187 105.117H630.476ZM633.555 122.006C635.655 127.227 638.543 131.863 642.219 135.9L644.963 133.402C641.595 129.702 638.939 125.446 636.998 120.621L633.555 122.006ZM642.228 135.911C645.909 139.892 650.171 143.037 655.007 145.334L656.599 141.982C652.197 139.891 648.318 137.031 644.954 133.392L642.228 135.911ZM655.032 145.346C659.959 147.597 665.217 148.718 670.786 148.718V145.007C665.731 145.007 661.001 143.993 656.574 141.971L655.032 145.346ZM670.786 148.718C676.843 148.718 682.504 147.383 687.741 144.704L686.05 141.4C681.356 143.802 676.277 145.007 670.786 145.007V148.718ZM687.748 144.7C692.989 141.989 697.408 138.422 700.984 133.999L698.097 131.666C694.859 135.672 690.848 138.918 686.043 141.404L687.748 144.7ZM698.657 134.464L717.538 144.684L719.304 141.42L700.424 131.2L698.657 134.464ZM716.917 141.965C711.653 149.245 705.02 155.097 696.998 159.529L698.792 162.778C707.284 158.087 714.334 151.871 719.925 144.139L716.917 141.965ZM696.998 159.529C689.027 163.933 680.301 166.14 670.786 166.14V169.851C680.903 169.851 690.249 167.497 698.792 162.778L696.998 159.529ZM734.176 165.744L732.32 165.746L732.322 167.599H734.176V165.744ZM734.089 79.1348V77.2792H732.232L732.234 79.1366L734.089 79.1348ZM755.222 79.1348L757.077 79.1139L757.057 77.2792H755.222V79.1348ZM755.308 86.8429L753.453 86.8638L753.505 91.4554L756.657 88.117L755.308 86.8429ZM765.875 79.4812L766.617 81.1817L766.627 81.1774L766.637 81.1729L765.875 79.4812ZM788.653 78.0954L790.381 78.77L791.119 76.8803L789.171 76.3137L788.653 78.0954ZM780.338 99.4012L779.657 101.127L781.39 101.811L782.067 100.076L780.338 99.4012ZM764.402 100.614L765.337 102.217L765.347 102.211L764.402 100.614ZM757.733 107.283L756.137 106.338L756.131 106.348L757.733 107.283ZM755.308 165.744V167.599H757.164V165.744H755.308ZM736.031 165.742L735.945 79.1329L732.234 79.1366L732.32 165.746L736.031 165.742ZM734.089 80.9903H755.222V77.2792H734.089V80.9903ZM753.366 79.1556L753.453 86.8638L757.164 86.8221L757.077 79.1139L753.366 79.1556ZM756.657 88.117C759.423 85.1884 762.736 82.8761 766.617 81.1817L765.132 77.7806C760.814 79.6661 757.083 82.2616 753.959 85.5689L756.657 88.117ZM766.637 81.1729C770.484 79.4389 774.64 78.5653 779.126 78.5653V74.8541C774.143 74.8541 769.464 75.8281 765.112 77.7895L766.637 81.1729ZM779.126 78.5653C782.119 78.5653 785.12 79.0003 788.135 79.8772L789.171 76.3137C785.834 75.3429 782.484 74.8541 779.126 74.8541V78.5653ZM786.924 77.4209L778.61 98.7267L782.067 100.076L790.381 78.77L786.924 77.4209ZM781.02 97.6753C778.625 96.73 776.2 96.2465 773.756 96.2465V99.9577C775.7 99.9577 777.664 100.34 779.657 101.127L781.02 97.6753ZM773.756 96.2465C770.03 96.2465 766.583 97.1668 763.457 99.0169L765.347 102.211C767.88 100.712 770.669 99.9577 773.756 99.9577V96.2465ZM763.467 99.011C760.416 100.791 757.968 103.243 756.137 106.338L759.33 108.228C760.848 105.664 762.846 103.67 765.337 102.217L763.467 99.011ZM756.131 106.348C754.338 109.421 753.453 112.836 753.453 116.55H757.164C757.164 113.451 757.895 110.688 759.336 108.218L756.131 106.348ZM753.453 116.55V165.744H757.164V116.55H753.453ZM755.308 163.888H734.176V167.599H755.308V163.888ZM859.613 79.1348V77.2792H857.591L857.764 79.2936L859.613 79.1348ZM880.745 79.1348H882.601V77.2792H880.745V79.1348ZM880.745 165.744V167.599H882.601V165.744H880.745ZM859.613 165.744L857.764 165.908L857.914 167.599H859.613V165.744ZM858.66 155.004L860.508 154.84L860.011 149.24L857.077 154.036L858.66 155.004ZM849.22 164.445L850.188 166.027L850.195 166.023L849.22 164.445ZM802.624 154.311L801.303 155.614L801.312 155.623L802.624 154.311ZM792.664 139.501L790.955 140.224L790.958 140.231L790.961 140.238L792.664 139.501ZM792.491 104.078L790.783 103.352L790.78 103.359L790.777 103.367L792.491 104.078ZM802.104 89.7876L803.416 91.0997L803.416 91.0997L802.104 89.7876ZM848.96 80.5205L848.048 82.1367L848.057 82.1416L848.96 80.5205ZM860.565 90.2207L859.123 91.3876L862.933 96.0985L862.414 90.0618L860.565 90.2207ZM846.881 144.265L845.87 142.709L845.87 142.709L846.881 144.265ZM855.022 135.171L856.672 136.021L856.677 136.01L855.022 135.171ZM855.022 109.708L853.368 110.547L853.373 110.557L855.022 109.708ZM846.795 100.527L845.783 102.083L845.795 102.091L846.795 100.527ZM822.717 100.614L823.694 102.192L823.701 102.187L822.717 100.614ZM813.97 109.708L812.362 108.782L812.356 108.791L812.351 108.8L813.97 109.708ZM814.056 135.171L815.664 134.245L815.664 134.245L814.056 135.171ZM822.804 144.265L821.827 145.842L821.838 145.849L822.804 144.265ZM859.613 80.9903H880.745V77.2792H859.613V80.9903ZM878.89 79.1348V165.744H882.601V79.1348H878.89ZM880.745 163.888H859.613V167.599H880.745V163.888ZM861.461 165.58L860.508 154.84L856.812 155.168L857.764 165.908L861.461 165.58ZM857.077 154.036C854.865 157.651 851.928 160.591 848.244 162.866L850.195 166.023C854.364 163.448 857.721 160.094 860.243 155.973L857.077 154.036ZM848.251 162.862C844.721 165.022 840.478 166.14 835.449 166.14V169.851C841.043 169.851 845.981 168.602 850.188 166.027L848.251 162.862ZM835.449 166.14C829.28 166.14 823.528 164.974 818.171 162.655L816.697 166.061C822.542 168.592 828.799 169.851 835.449 169.851V166.14ZM818.171 162.655C812.783 160.322 808.042 157.105 803.936 152.999L801.312 155.623C805.752 160.063 810.884 163.544 816.697 166.061L818.171 162.655ZM803.945 153.008C799.894 148.902 796.702 144.158 794.367 138.764L790.961 140.238C793.476 146.046 796.924 151.176 801.303 155.614L803.945 153.008ZM794.373 138.779C792.108 133.419 790.969 127.661 790.969 121.487H787.257C787.257 128.13 788.486 134.382 790.955 140.224L794.373 138.779ZM790.969 121.487C790.969 115.54 792.051 109.98 794.205 104.789L790.777 103.367C788.427 109.031 787.257 115.077 787.257 121.487H790.969ZM794.198 104.805C796.416 99.592 799.488 95.0282 803.416 91.0997L800.792 88.4756C796.522 92.7461 793.184 97.7093 790.783 103.352L794.198 104.805ZM803.416 91.0997C807.348 87.168 811.886 84.0961 817.041 81.8787L815.575 78.4695C809.991 80.8712 805.059 84.2083 800.792 88.4756L803.416 91.0997ZM817.041 81.8787C822.166 79.6743 827.689 78.5653 833.63 78.5653V74.8541C827.214 74.8541 821.189 76.0547 815.575 78.4695L817.041 81.8787ZM833.63 78.5653C839.061 78.5653 843.851 79.7692 848.048 82.1367L849.871 78.9043C845.061 76.1907 839.631 74.8541 833.63 74.8541V78.5653ZM848.057 82.1416C852.418 84.5706 856.101 87.6521 859.123 91.3876L862.008 89.0538C858.678 84.9367 854.624 81.5514 849.863 78.8994L848.057 82.1416ZM862.414 90.0618L861.461 78.9759L857.764 79.2936L858.717 90.3796L862.414 90.0618ZM834.929 149.498C839.758 149.498 844.1 148.285 847.892 145.82L845.87 142.709C842.733 144.747 839.107 145.787 834.929 145.787V149.498ZM847.892 145.82C851.638 143.386 854.567 140.107 856.672 136.02L853.373 134.321C851.552 137.856 849.053 140.64 845.87 142.709L847.892 145.82ZM856.677 136.01C858.781 131.865 859.823 127.331 859.823 122.439H856.111C856.111 126.786 855.19 130.739 853.368 134.331L856.677 136.01ZM859.823 122.439C859.823 117.494 858.782 112.955 856.672 108.858L853.373 110.557C855.189 114.082 856.111 118.031 856.111 122.439H859.823ZM856.677 108.868C854.57 104.716 851.606 101.401 847.794 98.9638L845.795 102.091C849.027 104.157 851.548 106.963 853.368 110.547L856.677 108.868ZM847.806 98.9714C844.017 96.5089 839.705 95.2938 834.929 95.2938V99.005C839.045 99.005 842.643 100.042 845.783 102.083L847.806 98.9714ZM834.929 95.2938C830.143 95.2938 825.73 96.5424 821.734 99.0402L823.701 102.187C827.095 100.066 830.823 99.005 834.929 99.005V95.2938ZM821.741 99.036C817.834 101.454 814.705 104.713 812.362 108.782L815.578 110.634C817.623 107.081 820.325 104.277 823.694 102.191L821.741 99.036ZM812.351 108.8C810.048 112.908 808.91 117.468 808.91 122.439H812.621C812.621 118.057 813.618 114.129 815.588 110.615L812.351 108.8ZM808.91 122.439C808.91 127.42 810.082 131.986 812.448 136.097L815.664 134.245C813.643 130.734 812.621 126.813 812.621 122.439H808.91ZM812.448 136.097C814.791 140.166 817.921 143.424 821.827 145.842L823.781 142.687C820.412 140.601 817.71 137.797 815.664 134.245L812.448 136.097ZM821.838 145.849C825.829 148.281 830.205 149.498 834.929 149.498V145.787C830.876 145.787 827.17 144.752 823.769 142.68L821.838 145.849ZM922.514 79.1348H920.658V80.9903H922.514V79.1348ZM946.158 79.1348H948.013V77.2792H946.158V79.1348ZM946.158 100.267V102.123H948.013V100.267H946.158ZM922.514 100.267V98.4117H920.658V100.267H922.514ZM922.514 165.744V167.599H924.369V165.744H922.514ZM901.381 165.744H899.526V167.599H901.381V165.744ZM901.381 100.267H903.237V98.4117H901.381V100.267ZM891.941 100.267H890.085V102.123H891.941V100.267ZM891.941 79.1348V77.2792H890.085V79.1348H891.941ZM901.381 79.1348V80.9903H903.237V79.1348H901.381ZM905.019 47.3493L903.426 46.3978L903.422 46.4045L905.019 47.3493ZM914.979 37.4759L915.914 39.0787L915.922 39.0739L915.93 39.069L914.979 37.4759ZM939.576 36.0035L938.858 37.7147L938.858 37.7147L939.576 36.0035ZM949.103 42.9322L950.4 44.2593L951.665 43.0223L950.489 41.6995L949.103 42.9322ZM933.859 57.829L932.22 58.6972L933.381 60.8911L935.156 59.1561L933.859 57.829ZM931.608 55.6637L930.698 57.281L930.757 57.314L930.818 57.3427L931.608 55.6637ZM924.332 56.703L925.612 58.0467L925.614 58.0453L924.332 56.703ZM920.658 60.9469V79.1348H924.369V60.9469H920.658ZM922.514 80.9903H946.158V77.2792H922.514V80.9903ZM944.302 79.1348V100.267H948.013V79.1348H944.302ZM946.158 98.4117H922.514V102.123H946.158V98.4117ZM920.658 100.267V165.744H924.369V100.267H920.658ZM922.514 163.888H901.381V167.599H922.514V163.888ZM903.237 165.744V100.267H899.526V165.744H903.237ZM901.381 98.4117H891.941V102.123H901.381V98.4117ZM893.796 100.267V79.1348H890.085V100.267H893.796ZM891.941 80.9903H901.381V77.2792H891.941V80.9903ZM903.237 79.1348V60.9469H899.526V79.1348H903.237ZM903.237 60.9469C903.237 56.2989 904.367 52.095 906.616 48.294L903.422 46.4045C900.82 50.8026 899.526 55.6637 899.526 60.9469H903.237ZM906.612 48.3007C908.935 44.411 912.029 41.3447 915.914 39.0787L914.044 35.8731C909.614 38.4571 906.068 41.9731 903.426 46.3979L906.612 48.3007ZM915.93 39.069C919.789 36.7646 924.048 35.6073 928.75 35.6073V31.8961C923.404 31.8961 918.483 33.2216 914.027 35.8828L915.93 39.069ZM928.75 35.6073C932.124 35.6073 935.49 36.3023 938.858 37.7147L940.293 34.2923C936.502 32.7023 932.65 31.8961 928.75 31.8961V35.6073ZM938.858 37.7147C942.163 39.1007 945.115 41.2388 947.716 44.165L950.489 41.6995C947.548 38.3898 944.148 35.9088 940.293 34.2923L938.858 37.7147ZM947.806 41.6051L932.563 56.5019L935.156 59.1561L950.4 44.2593L947.806 41.6051ZM935.499 56.9608C934.797 55.6331 933.752 54.6221 932.398 53.9848L930.818 57.3427C931.426 57.6292 931.883 58.0617 932.22 58.6972L935.499 56.9608ZM932.517 54.0465C931.339 53.3834 930.075 53.0287 928.75 53.0287V56.7398C929.387 56.7398 930.029 56.9047 930.698 57.281L932.517 54.0465ZM928.75 53.0287C926.573 53.0287 924.648 53.8365 923.051 55.3608L925.614 58.0453C926.557 57.1445 927.577 56.7398 928.75 56.7398V53.0287ZM923.053 55.3594C921.472 56.8644 920.658 58.7646 920.658 60.9469H924.369C924.369 59.7803 924.767 58.8513 925.612 58.0467L923.053 55.3594ZM1009.72 100.267V102.123H1011.58V100.267H1009.72ZM992.919 100.267V98.4117H991.063V100.267H992.919ZM992.919 165.744V167.599H994.774V165.744H992.919ZM971.786 165.744H969.93V167.599H971.786V165.744ZM971.786 100.267H973.642V98.4117H971.786V100.267ZM958.968 100.267H957.112V102.123H958.968V100.267ZM958.968 79.1348V77.2792H957.112V79.1348H958.968ZM971.786 79.1348V80.9903H973.642V79.1348H971.786ZM971.786 51.9396V50.084H969.93V51.9396H971.786ZM992.919 51.9396H994.774V50.084H992.919V51.9396ZM992.919 79.1348H991.063V80.9903H992.919V79.1348ZM1009.72 79.1348H1011.58V77.2792H1009.72V79.1348ZM1009.72 98.4117H992.919V102.123H1009.72V98.4117ZM991.063 100.267V165.744H994.774V100.267H991.063ZM992.919 163.888H971.786V167.599H992.919V163.888ZM973.642 165.744V100.267H969.93V165.744H973.642ZM971.786 98.4117H958.968V102.123H971.786V98.4117ZM960.823 100.267V79.1348H957.112V100.267H960.823ZM958.968 80.9903H971.786V77.2792H958.968V80.9903ZM973.642 79.1348V51.9396H969.93V79.1348H973.642ZM971.786 53.7951H992.919V50.084H971.786V53.7951ZM991.063 51.9396V79.1348H994.774V51.9396H991.063ZM992.919 80.9903H1009.72V77.2792H992.919V80.9903ZM1007.87 79.1348V100.267H1011.58V79.1348H1007.87Z" fill="white" mask="url(#path-10-outside-1_243_20)"/>
<path d="M1089.55 166.589V45.3369H1130.51C1136.4 45.3369 1141.74 46.5494 1146.53 48.9745C1151.38 51.3418 1155.22 54.835 1158.05 59.4541C1160.94 64.0155 1162.38 69.5585 1162.38 76.0831C1162.38 79.7784 1161.72 83.3005 1160.39 86.6493C1159.06 89.9982 1157.33 92.8563 1155.19 95.2236C1153.06 97.5332 1150.75 99.0344 1148.27 99.7273C1151.85 100.651 1154.94 102.268 1157.53 104.577C1160.13 106.829 1162.27 109.514 1163.94 112.632C1165.62 115.692 1166.83 118.926 1167.58 122.332C1168.39 125.739 1168.79 129.088 1168.79 132.379C1168.79 139.192 1167.29 145.168 1164.29 150.307C1161.34 155.446 1157.39 159.459 1152.42 162.346C1147.46 165.175 1141.94 166.589 1135.88 166.589H1089.55ZM1101.67 155.763H1134.93C1139.14 155.763 1142.95 154.666 1146.36 152.472C1149.83 150.278 1152.57 147.276 1154.59 143.465C1156.67 139.654 1157.71 135.352 1157.71 130.56C1157.71 126.287 1156.67 122.274 1154.59 118.521C1152.57 114.711 1149.83 111.65 1146.36 109.341C1142.95 106.974 1139.14 105.79 1134.93 105.79H1101.67V155.763ZM1101.67 95.137H1129.47C1135.19 95.137 1140.07 93.4914 1144.11 90.2003C1148.21 86.8514 1150.26 82.1168 1150.26 75.9965C1150.26 69.2987 1148.21 64.3331 1144.11 61.0997C1140.07 57.8086 1135.19 56.163 1129.47 56.163H1101.67V95.137ZM1181.15 133.418V79.9805H1193.27V130.993C1193.27 135.728 1194.43 140.029 1196.74 143.898C1199.05 147.766 1202.14 150.855 1206 153.165C1209.93 155.475 1214.23 156.629 1218.91 156.629C1223.64 156.629 1227.92 155.475 1231.73 153.165C1235.6 150.855 1238.69 147.766 1240.99 143.898C1243.3 140.029 1244.46 135.728 1244.46 130.993V79.9805H1256.58L1256.67 166.589H1244.55L1244.46 154.464C1241.4 158.852 1237.41 162.346 1232.51 164.944C1227.66 167.542 1222.34 168.841 1216.57 168.841C1210.05 168.841 1204.1 167.253 1198.73 164.078C1193.36 160.902 1189.09 156.629 1185.91 151.26C1182.74 145.89 1181.15 139.943 1181.15 133.418ZM1300.69 168.235C1295.96 168.119 1291.34 167.253 1286.83 165.637C1282.33 164.02 1278.4 161.826 1275.05 159.054C1271.7 156.283 1269.31 153.136 1267.87 149.614L1278.34 145.11C1279.27 147.362 1280.97 149.441 1283.45 151.346C1286 153.194 1288.88 154.695 1292.12 155.85C1295.35 156.947 1298.55 157.495 1301.73 157.495C1305.25 157.495 1308.54 156.918 1311.6 155.763C1314.66 154.608 1317.15 152.963 1319.05 150.827C1321.01 148.632 1322 146.063 1322 143.118C1322 139.943 1320.96 137.46 1318.88 135.67C1316.8 133.822 1314.17 132.379 1311 131.34C1307.82 130.242 1304.56 129.203 1301.21 128.222C1295.09 126.547 1289.69 124.7 1285.01 122.679C1280.34 120.658 1276.67 118.088 1274.01 114.97C1271.42 111.795 1270.12 107.724 1270.12 102.759C1270.12 97.5043 1271.59 92.9718 1274.53 89.161C1277.54 85.2925 1281.43 82.3189 1286.23 80.2403C1291.08 78.1039 1296.24 77.0358 1301.73 77.0358C1308.77 77.0358 1315.18 78.5658 1320.96 81.626C1326.79 84.6862 1331 88.7568 1333.6 93.8379L1323.81 99.6407C1322.78 97.2734 1321.13 95.2236 1318.88 93.4914C1316.63 91.7593 1314.06 90.4024 1311.17 89.4208C1308.34 88.4393 1305.45 87.9196 1302.51 87.8619C1298.81 87.8041 1295.38 88.3527 1292.2 89.5074C1289.03 90.6045 1286.46 92.25 1284.49 94.4441C1282.59 96.6382 1281.64 99.3231 1281.64 102.499C1281.64 105.674 1282.59 108.099 1284.49 109.774C1286.4 111.391 1288.97 112.719 1292.2 113.758C1295.49 114.739 1299.19 115.894 1303.29 117.222C1308.54 118.897 1313.48 120.802 1318.1 122.938C1322.72 125.075 1326.44 127.731 1329.27 130.906C1332.1 134.082 1333.49 138.095 1333.43 142.945C1333.43 148.142 1331.87 152.674 1328.75 156.543C1325.63 160.411 1321.59 163.385 1316.63 165.463C1311.66 167.484 1306.35 168.408 1300.69 168.235ZM1347.51 79.9805H1359.64V166.589H1347.51V79.9805ZM1353.66 64.8239C1351.7 64.8239 1350.02 64.1888 1348.64 62.9185C1347.31 61.5905 1346.65 59.9449 1346.65 57.9818C1346.65 56.0187 1347.31 54.402 1348.64 53.1317C1350.02 51.8037 1351.7 51.1397 1353.66 51.1397C1355.57 51.1397 1357.18 51.8037 1358.51 53.1317C1359.9 54.402 1360.59 56.0187 1360.59 57.9818C1360.59 59.9449 1359.93 61.5905 1358.6 62.9185C1357.27 64.1888 1355.62 64.8239 1353.66 64.8239ZM1455.68 112.978V166.589H1443.56V115.403C1443.56 110.669 1442.4 106.367 1440.09 102.499C1437.78 98.6302 1434.69 95.5412 1430.83 93.2316C1426.96 90.922 1422.65 89.7673 1417.92 89.7673C1413.24 89.7673 1408.94 90.922 1405.02 93.2316C1401.15 95.5412 1398.06 98.6302 1395.75 102.499C1393.44 106.367 1392.28 110.669 1392.28 115.403V166.589H1380.16V79.9805H1392.28V91.9325C1395.34 87.5443 1399.33 84.0511 1404.24 81.4528C1409.14 78.8545 1414.48 77.5554 1420.26 77.5554C1426.78 77.5554 1432.73 79.1432 1438.1 82.3189C1443.47 85.4946 1447.74 89.7673 1450.92 95.137C1454.09 100.507 1455.68 106.454 1455.68 112.978ZM1509.44 168.841C1501.47 168.841 1494.2 166.791 1487.62 162.692C1481.09 158.592 1475.87 153.107 1471.94 146.236C1468.07 139.308 1466.14 131.657 1466.14 123.285C1466.14 116.934 1467.26 111.015 1469.52 105.53C1471.77 99.9871 1474.86 95.137 1478.78 90.9798C1482.77 86.7648 1487.39 83.4737 1492.64 81.1064C1497.9 78.7391 1503.5 77.5554 1509.44 77.5554C1515.85 77.5554 1521.74 78.8257 1527.11 81.3662C1532.54 83.9067 1537.19 87.4577 1541.06 92.0191C1544.98 96.5805 1547.93 101.921 1549.89 108.042C1551.91 114.162 1552.75 120.773 1552.4 127.875H1478.96C1479.65 133.36 1481.38 138.268 1484.15 142.599C1486.98 146.929 1490.56 150.365 1494.89 152.905C1499.28 155.388 1504.13 156.658 1509.44 156.716C1515.22 156.716 1520.41 155.215 1525.03 152.212C1529.71 149.21 1533.46 145.081 1536.29 139.827L1548.59 142.685C1545.13 150.365 1539.9 156.658 1532.91 161.566C1525.93 166.416 1518.1 168.841 1509.44 168.841ZM1478.61 118.088H1540.19C1539.78 112.719 1538.14 107.811 1535.25 103.365C1532.42 98.8612 1528.76 95.2814 1524.25 92.6254C1519.75 89.9116 1514.81 88.5547 1509.44 88.5547C1504.07 88.5547 1499.17 89.8827 1494.72 92.5387C1490.27 95.137 1486.64 98.688 1483.81 103.192C1480.98 107.638 1479.25 112.603 1478.61 118.088ZM1594.18 168.235C1589.44 168.119 1584.83 167.253 1580.32 165.637C1575.82 164.02 1571.89 161.826 1568.54 159.054C1565.19 156.283 1562.8 153.136 1561.35 149.614L1571.83 145.11C1572.76 147.362 1574.46 149.441 1576.94 151.346C1579.48 153.194 1582.37 154.695 1585.6 155.85C1588.84 156.947 1592.04 157.495 1595.22 157.495C1598.74 157.495 1602.03 156.918 1605.09 155.763C1608.15 154.608 1610.63 152.963 1612.54 150.827C1614.5 148.632 1615.48 146.063 1615.48 143.118C1615.48 139.943 1614.45 137.46 1612.37 135.67C1610.29 133.822 1607.66 132.379 1604.49 131.34C1601.31 130.242 1598.05 129.203 1594.7 128.222C1588.58 126.547 1583.18 124.7 1578.5 122.679C1573.83 120.658 1570.16 118.088 1567.5 114.97C1564.91 111.795 1563.61 107.724 1563.61 102.759C1563.61 97.5043 1565.08 92.9718 1568.02 89.161C1571.03 85.2925 1574.92 82.3189 1579.72 80.2403C1584.57 78.1039 1589.73 77.0358 1595.22 77.0358C1602.26 77.0358 1608.67 78.5658 1614.45 81.626C1620.28 84.6862 1624.49 88.7568 1627.09 93.8379L1617.3 99.6407C1616.26 97.2734 1614.62 95.2236 1612.37 93.4914C1610.11 91.7593 1607.55 90.4024 1604.66 89.4208C1601.83 88.4393 1598.94 87.9196 1596 87.8619C1592.3 87.8041 1588.87 88.3527 1585.69 89.5074C1582.52 90.6045 1579.95 92.25 1577.98 94.4441C1576.08 96.6382 1575.12 99.3231 1575.12 102.499C1575.12 105.674 1576.08 108.099 1577.98 109.774C1579.89 111.391 1582.46 112.719 1585.69 113.758C1588.98 114.739 1592.68 115.894 1596.78 117.222C1602.03 118.897 1606.97 120.802 1611.59 122.938C1616.21 125.075 1619.93 127.731 1622.76 130.906C1625.59 134.082 1626.97 138.095 1626.92 142.945C1626.92 148.142 1625.36 152.674 1622.24 156.543C1619.12 160.411 1615.08 163.385 1610.11 165.463C1605.15 167.484 1599.84 168.408 1594.18 168.235ZM1668.61 168.235C1663.87 168.119 1659.25 167.253 1654.75 165.637C1650.25 164.02 1646.32 161.826 1642.97 159.054C1639.62 156.283 1637.23 153.136 1635.78 149.614L1646.26 145.11C1647.19 147.362 1648.89 149.441 1651.37 151.346C1653.91 153.194 1656.8 154.695 1660.03 155.85C1663.27 156.947 1666.47 157.495 1669.65 157.495C1673.17 157.495 1676.46 156.918 1679.52 155.763C1682.58 154.608 1685.06 152.963 1686.97 150.827C1688.93 148.632 1689.91 146.063 1689.91 143.118C1689.91 139.943 1688.87 137.46 1686.8 135.67C1684.72 133.822 1682.09 132.379 1678.91 131.34C1675.74 130.242 1672.48 129.203 1669.13 128.222C1663.01 126.547 1657.61 124.7 1652.93 122.679C1648.26 120.658 1644.59 118.088 1641.93 114.97C1639.33 111.795 1638.04 107.724 1638.04 102.759C1638.04 97.5043 1639.51 92.9718 1642.45 89.161C1645.45 85.2925 1649.35 82.3189 1654.14 80.2403C1658.99 78.1039 1664.16 77.0358 1669.65 77.0358C1676.69 77.0358 1683.1 78.5658 1688.87 81.626C1694.71 84.6862 1698.92 88.7568 1701.52 93.8379L1691.73 99.6407C1690.69 97.2734 1689.05 95.2236 1686.8 93.4914C1684.54 91.7593 1681.98 90.4024 1679.09 89.4208C1676.26 88.4393 1673.37 87.9196 1670.43 87.8619C1666.73 87.8041 1663.3 88.3527 1660.12 89.5074C1656.95 90.6045 1654.38 92.25 1652.41 94.4441C1650.51 96.6382 1649.55 99.3231 1649.55 102.499C1649.55 105.674 1650.51 108.099 1652.41 109.774C1654.32 111.391 1656.89 112.719 1660.12 113.758C1663.41 114.739 1667.11 115.894 1671.21 117.222C1676.46 118.897 1681.4 120.802 1686.02 122.938C1690.64 125.075 1694.36 127.731 1697.19 130.906C1700.02 134.082 1701.4 138.095 1701.35 142.945C1701.35 148.142 1699.79 152.674 1696.67 156.543C1693.55 160.411 1689.51 163.385 1684.54 165.463C1679.58 167.484 1674.27 168.408 1668.61 168.235Z" fill="white"/>
</svg>
